PathFileType	4	(X/Y/Z)	Walk2.trc
DataRate	CameraRate	NumFrames	NumMarkers	Units	OrigDataRate	OrigDataStartFrame	OrigNumFrames
200.000000	200.000000	8	59	mm	200.000000	344	485
Frame#	Times		LBHD		C7		T10		RBack		LPSI		RPSI		RCAR		LElbowM		LMT1		LLFC		RWRR		LFHD		LUA1		RUA1		RFA1		CLAV		LCAR		RFHD		RElbowM		LWRU		LACR1		RBHD		RACR1		RTH3		LFA1		RWRU		RTH4		RTH2		RTB1		RTB4		RCAL		RToe		RTB3		RLFC		RMT1		RMT5		LWRR		RElbow		RTB2		LTH4		RTH1		LTH1		LTB3		STRN		LElbow		RMMAL		LTH3		RASI		LTH2		LCAL		LASI		LLMAL		RLMAL		LTB2		LTB4		LMT5		LMMAL		LToe		LTB1
			X1	Y1	Z1	X2	Y2	Z2	X3	Y3	Z3	X4	Y4	Z4	X5	Y5	Z5	X6	Y6	Z6	X7	Y7	Z7	X8	Y8	Z8	X9	Y9	Z9	X10	Y10	Z10	X11	Y11	Z11	X12	Y12	Z12	X13	Y13	Z13	X14	Y14	Z14	X15	Y15	Z15	X16	Y16	Z16	X17	Y17	Z17	X18	Y18	Z18	X19	Y19	Z19	X20	Y20	Z20	X21	Y21	Z21	X22	Y22	Z22	X23	Y23	Z23	X24	Y24	Z24	X25	Y25	Z25	X26	Y26	Z26	X27	Y27	Z27	X28	Y28	Z28	X29	Y29	Z29	X30	Y30	Z30	X31	Y31	Z31	X32	Y32	Z32	X33	Y33	Z33	X34	Y34	Z34	X35	Y35	Z35	X36	Y36	Z36	X37	Y37	Z37	X38	Y38	Z38	X39	Y39	Z39	X40	Y40	Z40	X41	Y41	Z41	X42	Y42	Z42	X43	Y43	Z43	X44	Y44	Z44	X45	Y45	Z45	X46	Y46	Z46	X47	Y47	Z47	X48	Y48	Z48	X49	Y49	Z49	X50	Y50	Z50	X51	Y51	Z51	X52	Y52	Z52	X53	Y53	Z53	X54	Y54	Z54	X55	Y55	Z55	X56	Y56	Z56	X57	Y57	Z57	X58	Y58	Z58	X59	Y59	Z59

344	1.72	347.91	1502.3	-39.951	317.91	1369.7	32.203	287.6	1098.6	14.126	299.32	1262.9	158.18	266.33	907.36	-32.266	264.77	914.06	66.929	511.12	753.87	314.62	295.45	1007.8	-195.26	344.29	89.31	-67.595	501.83	470.4	-155.45	534.12	795.79	270.23	521.39	1496.3	-22.757	371.4	1156.1	-232.76	419.94	1143.5	251.42	423.91	874.54	291.39	439.27	1287.5	27.093	442.76	771.93	-318.8	528.66	1506.4	53.668	361.53	961.1	207.98	392.9	806.44	-300.53	386.86	1318.5	-137.07	350.68	1511.4	83.363	398.26	1301.5	178.14	419.38	556.31	161.68	359.68	921.05	-289.23	463.06	772.37	278.57	413.78	649.81	185.7	481.99	663.86	152.54	451.37	332.56	57.689	440.82	240.39	58.744	351.71	38.018	79.344	561.42	22.902	30.338	444.49	146.94	53.723	435.49	457.25	142.81	504.01	45.397	29.967	488.83	30.9	87.218	458.08	806	-265.18	405.62	1000.7	286.55	422.9	239.86	128.02	480.43	672.33	-174.23	413.8	735.07	210.19	448.07	759.87	-189.36	367.12	214.29	-59.917	502.35	1184.4	14.297	328.98	1043.1	-258.52	407.96	71.563	20.277	506.56	582.44	-161.8	480.39	887.98	158.55	540.4	700.44	-142.05	216.32	166.95	-32.449	457.5	885.38	-147.94	260.36	172.81	-85.695	412.12	63.132	99.712	387.22	308.81	-129.7	420.49	288.47	-69.676	302.33	94.263	-111.93	295.92	156.81	-14.717	366.77	47.738	-95.608	487.89	349.8	-83.124
345	1.725	354.05	1502.4	-39.892	324.03	1369.7	32.344	293.5	1098.7	14.389	305.34	1263	158.42	272.29	907.52	-32.341	270.53	914.38	66.9	522.27	755.64	314.29	300.87	1008.1	-194.71	364.2	87.103	-66.969	512.42	471.49	-154.53	544.44	797.87	269.76	527.54	1496.3	-22.782	376.57	1156.4	-232.57	426.64	1144	251.67	433.43	875.2	291.69	445.33	1287.6	27.193	446.69	771.94	-319.44	534.86	1506.3	53.644	369.44	961.15	208.69	397.01	806.59	-300.92	392.7	1318.6	-136.84	356.89	1511.5	83.419	404.26	1301.7	178.23	422.08	556.39	161.78	364.25	921.35	-289.28	473.77	773.62	278.65	417.99	649.81	185.76	485.97	663.12	152.08	452.07	332.58	57.978	441.24	240.4	58.966	351.71	38.139	79.203	561.48	22.887	29.982	444.72	146.93	53.776	436.42	457.2	143.01	504.03	45.141	29.791	488.86	30.873	87.166	462.28	805.86	-265.78	413.71	1001.2	287.04	423.06	239.86	128.14	488.93	673.19	-173.65	418.84	735.07	210.65	455.75	760.38	-189	383.24	212.08	-59.246	508.34	1184.4	14.189	333.95	1043.4	-258.2	408.03	71.614	20.181	515.91	583.64	-161.05	485.38	888.29	158.75	548.42	702	-141.23	233.54	160.53	-32.406	464.09	885.81	-147.88	277.77	167.64	-85.505	412.15	63.138	99.559	401.29	306.91	-129.12	434.76	287.59	-68.907	322.32	90.52	-111.47	313.41	152.57	-14.727	388.27	46.384	-94.888	500.59	350.56	-82.12
346	1.73	360.21	1502.3	-39.841	330.16	1369.7	32.475	299.39	1098.7	14.61	311.36	1262.9	158.64	278.23	907.56	-32.446	276.28	914.6	66.854	533.34	757.36	313.95	306.33	1008.3	-194.17	384.32	84.868	-66.291	522.88	472.48	-153.6	554.7	799.9	269.3	533.71	1496.1	-22.814	381.81	1156.5	-232.38	433.29	1144.4	251.93	442.87	875.79	291.95	451.39	1287.5	27.293	450.62	771.85	-320.07	541.08	1506.2	53.612	377.36	961.12	209.35	401.12	806.66	-301.33	398.55	1318.5	-136.62	363.12	1511.5	83.468	410.23	1301.9	178.31	424.78	556.45	161.89	368.82	921.56	-289.33	484.43	774.81	278.69	422.27	649.76	185.83	489.99	662.31	151.57	452.76	332.6	58.253	441.69	240.43	59.191	351.72	38.262	79.054	561.54	22.873	29.652	444.95	146.94	53.849	437.36	457.15	143.24	504.05	44.892	29.627	488.89	30.848	87.115	466.47	805.62	-266.4	421.72	1001.6	287.51	423.24	239.88	128.28	497.34	673.95	-173.06	424.11	735.02	211.11	463.4	760.79	-188.65	399.52	209.81	-58.54	514.32	1184.4	14.1	338.95	1043.6	-257.87	408.11	71.676	20.088	525.15	584.73	-160.29	490.38	888.51	158.94	556.37	703.44	-140.37	251.07	153.96	-32.341	470.67	886.12	-147.86	295.44	162.34	-85.296	412.17	63.149	99.404	415.44	304.88	-128.52	449.07	286.63	-68.104	342.57	86.706	-110.95	331.13	148.28	-14.629	409.95	45.052	-94.085	513.21	351.27	-81.038
347	1.735	366.38	1502.2	-39.8	336.28	1369.6	32.599	305.27	1098.6	14.789	317.36	1262.7	158.84	284.15	907.47	-32.58	282.03	914.71	66.791	544.34	759.04	313.59	311.83	1008.4	-193.63	404.62	82.634	-65.573	533.2	473.38	-152.65	564.89	801.88	268.84	539.89	1495.9	-22.854	387.12	1156.5	-232.19	439.89	1144.8	252.19	452.24	876.3	292.19	457.46	1287.4	27.393	454.54	771.65	-320.71	547.3	1505.9	53.574	385.28	961.01	209.97	405.25	806.63	-301.75	404.42	1318.3	-136.39	369.36	1511.4	83.511	416.19	1301.9	178.39	427.46	556.49	162.01	373.4	921.66	-289.38	495.04	775.95	278.68	426.61	649.66	185.93	494.04	661.42	151.04	453.45	332.62	58.508	442.18	240.48	59.418	351.74	38.387	78.896	561.61	22.862	29.354	445.19	146.95	53.944	438.33	457.1	143.48	504.08	44.654	29.478	488.92	30.826	87.067	470.67	805.26	-267.02	429.64	1001.9	287.97	423.45	239.92	128.42	505.68	674.61	-172.45	429.56	734.91	211.55	471	761.09	-188.29	415.94	207.5	-57.807	520.29	1184.3	14.03	343.98	1043.7	-257.55	408.19	71.753	19.997	534.28	585.72	-159.51	495.37	888.61	159.1	564.23	704.74	-139.5	268.92	147.27	-32.249	477.23	886.3	-147.86	313.37	156.93	-85.069	412.2	63.164	99.247	429.66	302.74	-127.92	463.41	285.6	-67.273	363.08	82.863	-110.39	349.07	143.97	-14.439	431.81	43.772	-93.215	525.75	351.94	-79.897
348	1.74	372.57	1502	-39.766	342.41	1369.4	32.718	311.14	1098.4	14.93	323.36	1262.5	159.02	290.07	907.25	-32.739	287.78	914.71	66.712	555.25	760.65	313.22	317.37	1008.3	-193.09	425.1	80.429	-64.827	543.37	474.18	-151.7	575.02	803.8	268.39	546.09	1495.5	-22.898	392.5	1156.5	-231.99	446.44	1145	252.45	461.55	876.73	292.39	463.52	1287.2	27.492	458.46	771.35	-321.35	553.54	1505.6	53.53	393.21	960.8	210.55	409.38	806.51	-302.18	410.32	1318.1	-136.16	375.61	1511.2	83.547	422.14	1301.9	178.47	430.13	556.51	162.12	377.98	921.66	-289.43	505.6	777.02	278.64	430.99	649.53	186.07	498.14	660.46	150.51	454.14	332.64	58.738	442.7	240.54	59.641	351.76	38.517	78.731	561.68	22.852	29.094	445.44	146.99	54.061	439.35	457.05	143.74	504.1	44.431	29.347	488.95	30.808	87.022	474.87	804.8	-267.65	437.46	1002.1	288.4	423.71	239.97	128.57	513.94	675.17	-171.84	435.17	734.74	211.98	478.56	761.29	-187.94	432.49	205.17	-57.055	526.26	1184.1	13.978	349.04	1043.7	-257.23	408.27	71.844	19.907	543.3	586.61	-158.72	500.36	888.6	159.25	572.01	705.92	-138.61	287.09	140.5	-32.129	483.78	886.36	-147.88	331.56	151.46	-84.827	412.23	63.185	99.09	443.93	300.52	-127.31	477.77	284.53	-66.422	383.83	79.033	-109.8	367.22	139.65	-14.174	453.8	42.573	-92.295	538.21	352.57	-78.714
349	1.745	378.76	1501.7	-39.739	348.55	1369.1	32.833	317.01	1098.1	15.035	329.37	1262.1	159.18	295.97	906.91	-32.922	293.53	914.59	66.617	566.08	762.21	312.85	322.93	1008.2	-192.58	445.73	78.282	-64.064	553.38	474.87	-150.73	585.07	805.66	267.94	552.29	1495.1	-22.948	397.95	1156.3	-231.8	452.95	1145.1	252.72	470.78	877.07	292.57	469.6	1286.9	27.59	462.38	770.93	-321.98	559.79	1505.1	53.48	401.14	960.49	211.09	413.52	806.3	-302.63	416.24	1317.7	-135.93	381.88	1510.9	83.577	428.08	1301.7	178.56	432.8	556.51	162.25	382.57	921.55	-289.49	516.1	778.02	278.55	435.39	649.37	186.23	502.26	659.45	149.97	454.86	332.66	58.938	443.25	240.62	59.856	351.78	38.651	78.561	561.76	22.844	28.875	445.7	147.03	54.193	440.44	457.01	144	504.13	44.223	29.233	488.98	30.794	86.982	479.08	804.23	-268.28	445.2	1002.2	288.83	424.02	240.04	128.72	522.1	675.64	-171.23	440.9	734.51	212.41	486.06	761.4	-187.6	449.15	202.85	-56.295	532.23	1183.7	13.947	354.13	1043.6	-256.92	408.36	71.95	19.813	552.2	587.4	-157.92	505.35	888.47	159.39	579.71	706.96	-137.71	305.56	133.68	-31.981	490.32	886.29	-147.93	349.99	145.96	-84.573	412.26	63.213	98.933	458.26	298.25	-126.69	492.15	283.42	-65.562	404.79	75.256	-109.18	385.59	135.34	-13.851	475.91	41.482	-91.339	550.59	353.16	-77.51
350	1.75	384.98	1501.3	-39.72	354.69	1368.8	32.944	322.88	1097.7	15.106	335.37	1261.6	159.32	301.87	906.44	-33.126	299.29	914.36	66.507	576.82	763.7	312.46	328.52	1008	-192.09	466.5	76.217	-63.296	563.23	475.45	-149.77	595.06	807.45	267.5	558.52	1494.6	-23.003	403.47	1156	-231.6	459.42	1145.1	252.99	479.95	877.31	292.73	475.67	1286.4	27.686	466.29	770.41	-322.61	566.05	1504.6	53.424	409.06	960.09	211.58	417.67	805.98	-303.08	422.17	1317.2	-135.71	388.16	1510.5	83.602	434.02	1301.5	178.64	435.48	556.49	162.39	387.18	921.33	-289.56	526.54	778.95	278.42	439.81	649.18	186.42	506.4	658.39	149.47	455.61	332.68	59.107	443.85	240.7	60.056	351.81	38.791	78.39	561.84	22.838	28.699	445.97	147.09	54.336	441.62	456.96	144.27	504.17	44.033	29.136	489.01	30.785	86.948	483.31	803.55	-268.91	452.84	1002.1	289.24	424.4	240.12	128.87	530.18	676	-170.63	446.7	734.24	212.82	493.5	761.4	-187.26	465.93	200.54	-55.538	538.19	1183.3	13.936	359.26	1043.4	-256.63	408.47	72.067	19.713	560.98	588.09	-157.12	510.35	888.23	159.51	587.32	707.88	-136.82	324.34	126.86	-31.807	496.85	886.09	-148	368.66	140.47	-84.308	412.3	63.249	98.777	472.61	295.94	-126.07	506.52	282.29	-64.702	425.93	71.57	-108.57	404.16	131.08	-13.487	498.11	40.525	-90.364	562.88	353.72	-76.299
351	1.755	391.2	1500.8	-39.709	360.83	1368.3	33.053	328.75	1097.3	15.146	341.37	1261	159.45	307.76	905.84	-33.35	305.05	914	66.381	587.48	765.11	312.06	334.12	1007.7	-191.63	487.39	74.261	-62.531	572.92	475.93	-148.81	604.98	809.17	267.07	564.75	1493.9	-23.061	409.06	1155.5	-231.42	465.85	1144.9	253.26	489.05	877.47	292.86	481.76	1285.9	27.779	470.21	769.78	-323.24	572.32	1504	53.362	416.99	959.58	212.04	421.83	805.58	-303.53	428.13	1316.6	-135.5	394.45	1510.1	83.621	439.96	1301.1	178.72	438.18	556.45	162.53	391.79	921	-289.63	536.92	779.8	278.25	444.22	648.96	186.62	510.56	657.3	149	456.4	332.69	59.242	444.49	240.78	60.234	351.85	38.94	78.218	561.93	22.833	28.564	446.27	147.16	54.479	442.9	456.91	144.54	504.2	43.859	29.053	489.04	30.784	86.921	487.55	802.76	-269.56	460.4	1002	289.64	424.86	240.21	129.01	538.16	676.26	-170.03	452.54	733.91	213.21	500.88	761.3	-186.94	482.79	198.27	-54.794	544.14	1182.7	13.946	364.43	1043.1	-256.36	408.58	72.194	19.603	569.64	588.67	-156.33	515.35	887.87	159.61	594.84	708.67	-135.93	343.41	120.07	-31.608	503.37	885.76	-148.09	387.55	135.02	-84.038	412.34	63.293	98.625	486.99	293.62	-125.45	520.89	281.15	-63.853	447.25	68.01	-107.96	422.94	126.88	-13.1	520.38	39.724	-89.387	575.06	354.25	-75.097
